<?xml version="1.0" standalone="no"?>
<!DOCTYPE svg PUBLIC "-//W3C//DTD SVG 20010904//EN"
 "http://www.w3.org/TR/2001/REC-SVG-20010904/DTD/svg10.dtd">
<svg version="1.0" xmlns="http://www.w3.org/2000/svg"
 width="1280.000000pt" height="640.000000pt" viewBox="0 0 1280.000000 640.000000"
 preserveAspectRatio="xMidYMid meet">
<metadata>
Created by potrace 1.15, written by Peter Selinger 2001-2017
</metadata>
<g transform="translate(0.000000,640.000000) scale(0.100000,-0.100000)"
fill="#000000" stroke="none">
<path d="M9178 5560 c-26 -5 -70 -16 -97 -25 l-48 -16 -6 -67 c-5 -73 -23
-134 -68 -229 -29 -60 -29 -63 -13 -88 14 -22 16 -41 10 -119 l-6 -93 27 -12
c16 -6 62 -15 102 -21 124 -17 143 -60 67 -153 -63 -78 -66 -87 -65 -185 1
-81 -2 -95 -30 -151 -25 -49 -33 -81 -41 -163 -6 -64 -16 -112 -28 -132 l-18
-31 -120 -3 c-148 -4 -274 13 -309 40 -14 11 -52 60 -85 108 -58 86 -105 135
-144 150 -61 22 -64 22 -102 -13 -31 -28 -37 -41 -41 -84 -3 -28 0 -67 6 -86
14 -42 79 -104 118 -113 16 -4 51 -28 78 -53 66 -62 132 -106 211 -142 113
-52 324 -102 515 -124 67 -7 72 -2 88 77 8 35 24 71 43 95 48 61 66 104 89
219 22 114 43 166 78 198 21 19 21 19 21 0 -1 -58 -40 -168 -115 -319 -46 -93
-89 -192 -96 -218 -19 -76 -7 -142 44 -243 66 -129 66 -135 13 -192 -29 -31
-85 -70 -159 -111 -62 -34 -177 -109 -255 -166 -78 -57 -169 -123 -202 -145
-69 -47 -80 -64 -80 -118 0 -34 -3 -39 -18 -35 -10 2 -34 1 -52 -4 -28 -8 -40
-21 -77 -88 -65 -119 -95 -143 -243 -194 -152 -52 -308 -126 -375 -179 l-50
-38 21 43 c26 50 38 125 53 313 8 114 16 154 50 255 66 195 54 267 -65 405
-31 36 -66 88 -78 115 -13 28 -42 88 -65 135 -23 47 -48 110 -56 140 -15 57
-18 197 -6 240 7 23 9 21 20 -20 21 -79 33 -115 43 -127 6 -7 4 -22 -6 -42
-23 -43 -20 -108 8 -166 34 -75 42 -79 112 -55 136 47 214 132 199 219 -4 22
-22 72 -41 111 -69 144 -162 260 -303 378 -84 70 -113 101 -138 148 -36 67
-75 107 -186 189 -90 67 -127 120 -127 184 0 52 17 85 67 132 72 66 85 191 32
297 -52 104 -145 161 -265 162 -102 0 -306 -55 -318 -86 -3 -7 -12 -62 -21
-121 -20 -135 -30 -166 -67 -208 -27 -32 -28 -35 -15 -62 8 -15 24 -37 36 -47
16 -15 21 -31 21 -72 0 -56 14 -104 33 -116 7 -4 46 -5 87 -2 97 8 114 -3 113
-72 0 -34 -14 -79 -42 -145 l-41 -96 0 -136 c0 -89 4 -138 11 -143 21 -12 47
-88 75 -214 15 -69 36 -145 46 -169 l19 -44 36 34 c45 43 72 102 73 156 0 33
-15 70 -65 167 -39 75 -68 143 -71 170 -8 55 10 64 20 11 4 -20 40 -100 79
-178 111 -218 106 -195 56 -264 -24 -32 -74 -96 -112 -143 -83 -101 -95 -119
-182 -280 -44 -82 -87 -146 -125 -187 -65 -70 -80 -106 -80 -198 1 -91 55
-195 102 -195 27 0 59 79 66 159 5 72 18 95 121 226 101 127 212 245 332 352
66 59 119 111 119 116 0 6 19 34 41 64 69 89 71 173 9 357 -16 49 -28 91 -26
93 2 3 20 -24 39 -59 66 -119 92 -250 67 -337 -16 -58 -58 -106 -165 -195
-152 -125 -156 -132 -159 -263 l-2 -108 -78 -194 c-50 -124 -91 -244 -113
-334 -25 -103 -47 -165 -81 -230 -60 -116 -64 -164 -27 -337 19 -88 29 -175
35 -297 5 -94 19 -235 31 -312 19 -119 20 -147 10 -182 -19 -62 -69 -109 -182
-169 -57 -30 -118 -70 -136 -87 -31 -31 -63 -107 -50 -119 13 -13 126 -3 181
16 86 29 141 33 231 16 44 -9 106 -16 139 -16 53 0 61 3 92 34 46 46 45 89 -3
209 -51 129 -50 185 12 422 62 240 69 342 31 500 -40 170 -41 162 29 211 69
49 94 93 95 169 1 36 16 -23 54 -210 29 -143 58 -269 63 -280 6 -11 23 -31 37
-44 24 -22 31 -24 108 -18 46 3 105 13 132 23 78 27 300 181 458 316 284 244
366 302 444 314 39 6 134 -4 109 -11 -5 -2 -45 -11 -89 -21 -78 -17 -79 -18
-98 -61 -37 -83 -42 -159 -23 -349 18 -175 16 -298 -4 -364 -6 -19 -38 -68
-72 -109 -33 -41 -78 -107 -100 -147 -51 -92 -75 -115 -141 -134 -44 -13 -53
-20 -56 -41 -4 -30 27 -47 98 -56 60 -7 120 17 237 94 50 34 125 73 165 88
138 51 177 72 198 107 28 45 22 112 -20 201 -27 57 -32 78 -32 142 1 64 8 98
51 223 76 223 92 305 75 391 l-6 31 -76 0 c-59 0 -73 3 -64 12 9 9 44 9 154 0
191 -16 178 -18 178 22 0 39 -26 68 -102 117 -58 37 -53 43 41 53 94 11 290
62 384 102 101 43 221 123 225 151 2 11 -8 46 -22 78 -15 32 -26 67 -26 79 0
11 14 -12 30 -52 35 -85 90 -174 196 -314 106 -139 185 -220 294 -302 64 -48
106 -88 130 -124 30 -46 41 -55 88 -68 30 -9 109 -36 175 -61 67 -25 225 -72
351 -104 259 -68 359 -103 442 -158 73 -48 100 -76 158 -171 25 -41 63 -92 83
-113 34 -36 36 -41 34 -97 -2 -52 1 -63 23 -85 43 -43 67 -29 108 60 19 42 23
66 22 150 -1 106 -12 156 -71 343 -20 61 -34 114 -32 116 2 2 19 7 37 11 l32
7 0 -62 c0 -59 3 -66 67 -163 196 -300 240 -361 331 -461 105 -115 151 -181
182 -263 l19 -50 -33 -49 c-48 -70 -76 -93 -148 -119 -37 -13 -71 -33 -82 -48
-18 -24 -18 -27 -2 -51 19 -30 62 -44 86 -28 12 7 21 7 28 0 15 -15 98 -4 177
25 39 14 115 39 170 56 234 73 251 142 77 326 -53 56 -112 128 -131 159 -20
33 -55 125 -82 212 -60 194 -86 241 -177 323 -155 140 -165 187 -73 351 68
122 87 173 97 261 10 91 37 141 125 232 91 92 102 119 103 237 2 138 -8 170
-78 274 -111 161 -112 166 -131 388 -16 193 -31 242 -112 353 -63 87 -69 99
-78 155 -4 25 -14 59 -23 75 -40 79 -159 238 -232 310 -84 82 -120 136 -120
178 0 13 18 48 41 78 62 82 70 104 70 176 0 78 -27 141 -95 218 l-44 50 -153
0 c-152 0 -167 -2 -275 -42 l-41 -15 -6 -86 c-4 -70 -13 -107 -46 -191 l-41
-104 30 -33 c28 -32 51 -95 64 -176 l7 -36 103 -12 c57 -7 110 -16 118 -21 9
-6 13 -30 13 -76 -1 -59 -7 -83 -47 -173 -53 -119 -70 -210 -58 -308 8 -60 68
-274 112 -392 27 -74 32 -106 19 -115 -7 -4 -66 -15 -132 -26 -67 -11 -129
-24 -139 -29 -11 -6 -30 -6 -51 1 -19 5 -67 10 -107 10 -94 0 -147 -26 -179
-91 -38 -74 -27 -197 20 -222 18 -9 24 -7 41 17 12 15 35 42 53 61 l31 34 97
0 c53 0 105 5 116 11 14 7 47 6 120 -7 154 -25 237 -17 343 34 51 25 103 43
128 45 41 2 44 4 70 57 34 68 48 151 49 300 1 150 14 186 24 66 10 -119 1
-281 -20 -338 -24 -68 -74 -114 -143 -133 -78 -21 -117 -42 -133 -71 -11 -21
-9 -31 11 -74 23 -50 23 -50 4 -86 -29 -55 -89 -120 -189 -201 -134 -111 -218
-197 -250 -255 -16 -29 -55 -78 -87 -108 -54 -51 -58 -59 -58 -100 0 -41 4
-48 63 -105 86 -84 130 -103 264 -115 60 -5 127 -16 149 -24 34 -12 37 -15 19
-22 -11 -5 -50 -8 -86 -8 -54 1 -90 11 -200 55 -131 52 -136 55 -214 134 -88
89 -199 167 -278 197 -29 11 -94 28 -145 38 -96 19 -134 36 -152 70 -6 11 -27
66 -46 122 -50 142 -85 208 -174 323 -108 140 -110 145 -110 267 0 57 -5 120
-11 141 -14 53 -66 107 -179 187 -140 100 -166 133 -190 241 -16 71 -8 241 15
324 46 171 44 166 73 159 130 -29 203 -78 246 -163 25 -49 62 -163 96 -299 58
-233 131 -312 275 -300 68 6 95 27 95 78 0 45 -20 67 -108 119 -67 39 -68 40
-80 98 -7 32 -19 130 -28 218 -22 227 -46 312 -108 378 -35 38 -321 175 -465
224 -79 26 -123 47 -145 68 -17 16 -53 45 -79 62 -54 38 -87 85 -87 128 0 19
16 53 45 95 96 141 94 282 -7 376 -45 43 -87 63 -166 80 -73 15 -103 16 -174
4z m2427 -1634 c10 -117 17 -151 39 -193 14 -29 30 -54 36 -58 12 -7 14 -26 3
-24 -38 6 -83 -29 -83 -63 0 -12 -4 -16 -11 -12 -14 8 -4 75 17 115 14 27 13
39 -11 143 -15 71 -25 143 -25 192 1 122 19 68 35 -100z m242 -775 c-74 -139
-109 -347 -124 -737 -9 -225 -14 -196 -28 141 -8 199 3 333 37 422 31 84 132
261 136 239 2 -10 -7 -39 -21 -65z m-4525 -401 l4 -215 -19 95 c-24 120 -28
304 -7 340 18 33 18 36 22 -220z m1523 -30 c70 -17 70 -17 40 -29 -16 -7 -44
-10 -62 -6 -32 6 -143 53 -143 61 0 6 89 -8 165 -26z m-1508 -237 c-3 -10 -5
-2 -5 17 0 19 2 27 5 18 2 -10 2 -26 0 -35z"/>
<path d="M4711 5465 c-29 -8 -74 -26 -100 -38 l-46 -24 3 -49 c2 -27 -3 -67
-11 -89 -8 -22 -18 -74 -22 -115 -4 -41 -13 -86 -20 -100 -11 -21 -11 -30 2
-53 8 -16 18 -73 22 -128 4 -55 13 -105 20 -112 7 -7 50 -13 102 -16 80 -3 91
-5 105 -26 13 -21 11 -30 -37 -128 -42 -86 -52 -118 -56 -174 -3 -39 -14 -85
-26 -108 -30 -60 -33 -162 -7 -255 11 -41 28 -104 36 -140 9 -36 20 -82 25
-102 6 -21 31 -66 58 -101 83 -108 86 -117 81 -242 -6 -172 -6 -223 3 -231 4
-4 24 -2 44 4 20 6 38 10 40 8 2 -2 -27 -21 -64 -42 -68 -39 -156 -123 -454
-429 -140 -144 -159 -178 -139 -241 11 -33 14 -35 43 -29 18 4 70 25 117 47
47 22 103 46 125 55 57 20 138 18 186 -5 l39 -19 74 32 c41 18 130 66 198 108
144 88 203 118 278 142 30 10 70 28 87 42 65 48 157 139 186 183 31 49 29 23
-5 -43 -32 -64 -91 -110 -237 -186 -78 -41 -160 -90 -182 -110 l-42 -37 23
-44 c36 -70 109 -174 215 -305 53 -66 120 -157 147 -202 42 -68 60 -88 103
-112 37 -21 83 -65 158 -153 144 -169 274 -293 386 -368 126 -84 174 -130 201
-192 20 -47 21 -60 14 -157 -4 -58 -7 -108 -7 -111 0 -3 3 -24 7 -47 6 -39 3
-46 -29 -82 -21 -23 -35 -49 -35 -65 0 -25 2 -26 57 -26 71 0 114 27 177 111
40 52 46 68 61 156 25 152 34 184 66 241 39 69 36 105 -11 143 -20 16 -63 35
-100 45 -40 10 -76 26 -94 42 -45 43 -108 137 -181 272 -117 216 -167 277
-300 364 -144 95 -165 128 -189 306 -15 105 -22 127 -78 244 l-62 129 4 86
c11 250 8 262 -115 436 -124 175 -140 226 -151 475 l-7 156 -113 62 c-62 35
-135 83 -161 108 l-48 45 45 -29 c76 -49 152 -89 210 -112 67 -26 115 -62 134
-98 8 -15 26 -88 40 -162 33 -164 38 -183 87 -290 21 -47 50 -130 65 -185 31
-118 54 -164 103 -203 78 -62 153 -83 228 -63 72 20 75 60 9 118 -24 21 -36
40 -36 57 0 21 -13 34 -65 67 -36 22 -75 55 -87 72 -33 47 -36 129 -7 214 43
124 26 333 -38 471 -29 61 -122 145 -213 192 -62 32 -142 110 -257 251 -43 53
-111 133 -151 178 -40 45 -78 94 -83 109 -15 39 3 98 60 193 61 101 76 156 61
224 -19 86 -68 141 -165 184 -45 21 -238 24 -304 6z m279 -2170 c-18 -19 -36
-32 -39 -29 -6 6 61 72 68 67 3 -2 -11 -19 -29 -38z"/>
<path d="M2542 5450 c-24 -5 -67 -20 -97 -34 l-53 -24 -4 -113 c-3 -92 -10
-129 -32 -193 l-28 -79 21 -37 c15 -27 21 -55 21 -97 0 -118 28 -147 116 -123
24 7 46 11 48 9 1 -2 11 -28 22 -58 l21 -54 -48 -141 c-78 -228 -83 -309 -33
-510 13 -54 27 -102 29 -106 11 -18 -53 -74 -129 -112 -44 -22 -95 -51 -113
-64 -25 -19 -44 -24 -91 -24 -146 0 -241 -85 -242 -217 0 -46 3 -54 31 -74 17
-12 51 -28 76 -35 l45 -14 50 45 c49 44 153 100 233 125 22 7 86 30 143 52 57
22 106 38 109 35 11 -12 42 -226 43 -294 0 -67 2 -74 27 -90 l26 -17 44 49
c23 27 43 45 43 39 0 -16 -43 -77 -120 -171 -51 -61 -92 -129 -156 -255 -102
-202 -135 -257 -202 -331 -41 -45 -52 -67 -70 -134 -12 -43 -22 -89 -22 -102
0 -12 -10 -41 -21 -64 -38 -74 -77 -205 -119 -396 -22 -102 -52 -229 -67 -281
-24 -89 -30 -99 -88 -160 -34 -36 -65 -75 -69 -87 -5 -15 3 -39 25 -78 37 -66
35 -90 -15 -167 -32 -49 -54 -108 -41 -108 17 0 320 126 337 140 18 14 22 31
26 101 2 46 -1 103 -6 126 -10 41 -9 42 105 220 179 279 239 415 271 612 l17
103 105 88 c58 48 150 120 205 159 l99 72 12 -68 c14 -86 40 -136 121 -240 57
-74 113 -171 113 -198 0 -6 10 -17 23 -25 143 -91 167 -96 257 -54 30 14 117
39 192 54 104 22 182 46 325 103 310 124 251 112 555 110 267 -3 267 -3 304
-28 42 -28 72 -32 80 -10 17 44 -37 115 -129 167 -31 18 -47 34 -47 47 0 32
-55 86 -110 110 -60 26 -81 19 -49 -15 28 -30 13 -32 -19 -1 -37 35 -125 31
-183 -8 -24 -16 -55 -34 -69 -39 -14 -5 -171 -12 -350 -16 -340 -8 -402 -16
-477 -60 -18 -10 -34 -16 -36 -12 -10 18 -17 67 -27 195 -11 141 -21 182 -61
274 -22 50 -22 56 -10 132 7 45 11 95 7 114 -4 20 -32 63 -70 109 -51 63 -67
89 -79 140 -17 68 -70 419 -88 583 -11 108 -14 115 -33 115 -7 0 -46 16 -85
36 -50 25 -81 48 -102 77 -40 56 -36 64 14 27 92 -70 221 -150 258 -161 32
-10 41 -18 49 -48 15 -53 12 -197 -6 -361 -19 -163 -10 -266 26 -326 21 -34
100 -91 158 -114 44 -17 104 -18 135 -1 26 14 57 65 57 94 0 16 -40 27 -99 27
-33 0 -39 5 -73 58 -61 95 -60 122 7 202 74 88 111 229 103 389 -7 133 -22
164 -130 266 -86 82 -135 115 -188 128 -42 10 -107 74 -179 176 -54 76 -84
107 -144 150 -82 58 -101 79 -111 127 -6 26 0 40 44 99 90 122 120 286 71 387
-28 59 -93 117 -157 142 -56 21 -206 30 -272 16z m578 -2755 c-36 -53 -59 -61
-29 -10 17 29 43 53 57 55 2 0 -11 -20 -28 -45z"/>
<path d="M565 5319 c-66 -6 -83 -11 -167 -41 -78 -28 -84 -44 -80 -229 1 -80
-2 -158 -7 -172 -9 -22 -6 -31 16 -57 20 -25 27 -47 33 -106 10 -98 20 -108
108 -109 66 0 67 0 85 -35 29 -56 18 -124 -39 -228 l-47 -87 6 -150 c10 -239
48 -422 94 -452 20 -13 23 -12 34 9 18 31 16 145 -6 303 -16 126 -15 208 4
257 7 16 8 4 4 -42 -3 -38 2 -116 12 -185 9 -66 19 -169 21 -230 l5 -110 -123
-58 c-178 -83 -219 -96 -333 -111 -127 -17 -170 -36 -179 -78 -27 -137 45
-224 144 -173 16 8 34 24 40 35 8 15 17 18 40 13 21 -4 48 3 91 22 l61 27 177
-7 c166 -7 181 -6 224 13 42 19 47 25 61 74 24 84 36 180 44 363 5 141 8 159
13 105 12 -120 9 -313 -6 -384 -8 -37 -26 -87 -39 -110 -25 -42 -85 -91 -122
-98 -16 -3 -20 -14 -24 -69 -6 -83 -22 -105 -181 -246 -65 -58 -134 -126 -153
-152 -18 -25 -66 -111 -106 -191 -65 -130 -73 -152 -78 -216 -5 -83 20 -157
60 -173 278 -111 338 -129 468 -137 78 -5 203 6 216 18 1 2 -4 28 -12 58 -16
63 -18 128 -5 163 13 32 1 42 -116 101 -76 38 -102 46 -147 46 -77 0 -77 15 1
29 74 13 106 28 176 77 32 23 49 30 52 22 55 -167 58 -184 65 -343 7 -173 7
-174 75 -266 23 -32 53 -87 66 -124 18 -50 35 -78 72 -113 27 -26 66 -72 88
-104 21 -31 71 -94 110 -140 132 -151 162 -221 161 -364 -1 -77 -3 -84 -40
-142 -21 -33 -45 -74 -52 -91 -9 -23 -22 -33 -51 -41 -53 -15 -51 -37 5 -45
94 -14 165 12 268 98 35 29 91 74 126 101 70 54 92 87 92 145 0 42 -6 49 -119
133 -56 42 -93 109 -126 228 -51 185 -59 206 -104 298 -30 62 -67 118 -110
165 -35 39 -73 91 -84 116 -28 64 -33 188 -13 356 10 77 20 212 22 300 5 143
8 165 31 213 l25 52 41 -35 c61 -53 121 -66 182 -41 62 26 39 96 -65 201 -85
86 -104 131 -125 312 -26 219 -36 271 -65 358 -43 128 -87 208 -153 283 -76
86 -106 132 -141 212 -33 76 -68 126 -95 135 -10 3 -21 18 -24 34 -3 16 -28
57 -55 93 -90 117 -101 163 -58 254 74 159 75 315 3 392 -53 57 -152 83 -272
71z m574 -1442 c5 -18 12 -69 15 -113 9 -113 39 -224 88 -324 23 -47 44 -89
46 -95 3 -5 -12 5 -31 24 -45 42 -98 143 -126 236 -39 134 -50 343 -15 314 7
-6 17 -25 23 -42z m-303 -911 c4 -78 12 -163 19 -189 14 -55 1 -59 -28 -9 -23
38 -37 174 -30 287 10 166 29 122 39 -89z"/>
<path d="M12273 2538 c-45 -70 -115 -218 -129 -272 -5 -23 -3 -26 18 -26 13 0
51 7 83 16 77 20 108 14 214 -38 66 -32 101 -43 149 -46 58 -4 64 -7 79 -36
19 -36 30 -46 59 -46 24 0 54 29 54 54 0 26 -44 106 -88 163 -30 37 -53 55
-89 68 -64 23 -79 36 -145 126 -54 72 -102 109 -142 109 -9 0 -37 -32 -63 -72z"/>
<path d="M1336 2362 c-42 -81 -5 -203 93 -312 l50 -55 2 90 c3 187 -4 236 -44
273 -13 12 -37 25 -54 28 -28 5 -33 3 -47 -24z"/>
<path d="M4500 2219 c0 -33 52 -79 220 -194 250 -172 294 -241 294 -470 1
-143 -11 -187 -64 -251 -95 -116 -4 -157 129 -59 72 53 99 92 144 205 18 47
59 122 90 168 44 64 57 91 57 120 0 57 -30 96 -107 138 -104 57 -129 79 -202
178 -78 105 -124 154 -158 167 -13 5 -88 9 -166 10 -78 0 -163 4 -189 8 -48 8
-48 8 -48 -20z"/>
</g>
</svg>
